<svg xmlns="http://www.w3.org/2000/svg" width="158" height="36" viewBox="0 0 158 36">
    <path fill="#FEFEFE" fill-rule="evenodd" d="M126.298 33.38l.03-.047c-.075-.07-.149-.141-.225-.21-2.934-2.65-5.868-5.302-8.805-7.948-.389-.35-.68-.754-.816-1.257-.04-.147-.063-.299-.093-.449-.45.763-.893 1.522-1.237 2.322-.296.689-.037 1.415.563 1.881.142.113.302.21.462.296 3.13 1.677 6.26 3.35 9.392 5.023.242.132.486.26.729.39m-8.217-13.116l.031.021 16.55-18.13c-1.208-.634-2.382-1.262-3.568-1.87a1.809 1.809 0 0 0-1.402-.11c-.698.216-1.127.718-1.458 1.33-3.072 5.68-6.148 11.358-9.222 17.037l-.931 1.722M145.259 6.79c-.075-.064-.13-.11-.181-.157-1.822-1.664-3.64-3.333-5.467-4.99-.877-.794-2.008-.802-2.88.01-.616.572-1.185 1.196-1.752 1.817-4.211 4.603-8.419 9.21-12.625 13.82-1.458 1.596-2.91 3.197-4.364 4.795-.685.752-.641 1.639.11 2.318 2.245 2.027 4.49 4.055 6.736 6.08.576.523 1.155 1.042 1.733 1.562a.673.673 0 0 0-.07-.252c-1.636-3.666-3.273-7.333-4.912-10.999-.16-.359-.252-.732-.227-1.124.073-1.114.65-1.886 1.659-2.365l3.528-1.67c4.236-2.006 8.47-4.013 12.707-6.017 1.985-.938 3.972-1.87 6.005-2.828m4.128-.492c1.027.008 1.64.443 2.01 1.233.62 1.324 1.238 2.65 1.855 3.977 1.459 3.132 2.919 6.263 4.367 9.4.14.305.25.638.29.968.09.717-.268 1.329-.933 1.64-2.501 1.171-5.003 2.342-7.512 3.498a7542.417 7542.417 0 0 1-17.699 8.131 3.537 3.537 0 0 1-1.098.313c-.864.09-1.435-.316-1.85-1.243l-5.256-11.73c-.313-.7-.603-1.41-.938-2.1-.39-.804.056-1.692.754-2.024 4.336-2.057 8.67-4.117 13.01-6.165 3.928-1.854 7.862-3.695 11.794-5.54.421-.199.852-.368 1.206-.358zM0 27V8h8.312C12.104 8 14 9.785 14 13.354c0 3.872-2.593 6.214-7.78 7.03l-.493-3.136c3.117-.576 4.676-1.838 4.676-3.787 0-1.577-.771-2.365-2.312-2.365H3.44V27H0zm21.852-6.133c.976 0 1.891.089 2.747.266v2.24c-.967.73-2.015 1.094-3.144 1.094-1.37 0-2.054-.622-2.054-1.867 0-1.155.817-1.733 2.451-1.733zM16 22.64c0-2.782 1.95-4.173 5.852-4.173.916 0 1.831.089 2.747.266V17.68c0-1.253-.869-1.88-2.605-1.88-1.472 0-3.106.222-4.903.667v-2.8c1.797-.445 3.43-.667 4.903-.667C25.998 13 28 14.538 28 17.613V27h-1.977l-1.206-1.253C23.645 26.582 22.353 27 20.941 27 17.647 27 16 25.547 16 22.64zm26.241-6.478v6.883a7.44 7.44 0 0 1-3.163.717c-2.241 0-3.362-1.297-3.362-3.893 0-2.684 1.3-4.026 3.901-4.026 1.135 0 2.01.107 2.624.32zM46 25.888C46 29.963 43.385 32 38.156 32c-1.835 0-3.461-.222-4.88-.664v-2.79c1.447.442 3.083.664 4.908.664 2.705 0 4.057-1.063 4.057-3.189-1.116.443-2.317.664-3.603.664-4.425 0-6.638-2.263-6.638-6.79C32 15.3 34.577 13 39.73 13c1.731 0 3.82.19 6.27.571v12.317zm1-3.248c0-2.782 1.95-4.173 5.852-4.173.916 0 1.831.089 2.747.266V17.68c0-1.253-.869-1.88-2.605-1.88-1.472 0-3.106.222-4.903.667v-2.8c1.797-.445 3.43-.667 4.903-.667C56.998 13 59 14.538 59 17.613V27h-1.977l-1.206-1.253C54.645 26.582 53.353 27 51.941 27 48.647 27 47 25.547 47 22.64zM63 27V13h2.79l.45 2.053C67.61 13.685 69.17 13 70.922 13 74.307 13 76 14.725 76 18.173V27h-3.607v-8.827c0-1.546-.785-2.32-2.355-2.32-1.171 0-2.314.458-3.43 1.374V27H63zm30-.837c-2.295.558-4.538.837-6.729.837C81.424 27 79 24.582 79 19.745c0-4.464 2.371-6.696 7.114-6.696 1.01 0 2.043.221 3.1.664V8H93v18.163zm3-6.156C96 15.336 98.333 13 103 13s7 2.336 7 7.007c0 4.662-2.333 6.993-7 6.993-4.649 0-6.982-2.331-7-6.993zm7 4.312c2.288 0 3.433-1.455 3.433-4.365 0-2.84-1.145-4.26-3.433-4.26s-3.433 1.42-3.433 4.26c0 2.91 1.145 4.365 3.433 4.365m-13.786-7.63c-.78-.478-1.762-.717-2.943-.717-2.352 0-3.528 1.227-3.528 3.68 0 2.915 1.224 4.372 3.671 4.372.99 0 1.924-.129 2.8-.386V16.69zm-36.362 4.178c-1.634 0-2.45.578-2.45 1.733 0 1.245.684 1.867 2.053 1.867 1.129 0 2.177-.365 3.144-1.094v-2.24a13.494 13.494 0 0 0-2.747-.266"/>
</svg>
